ptsfile
1	1	1
21
Fp1	-30,90169944	95,10565163	6,12574E-15	0	0	0	2.0	2.0
Fpz	6,12574E-15	100		6,12574E-15	0	0	0	2.0	2.0
Fp2	30,90169944	95,10565163	6,12574E-15	0	0	0	2.0	2.0
F7	-80,90169944	58,77852523	6,12574E-15	0	0	0	2.0	2.0
F3	-57,46965744	66,81464076	47,25507649	0	0	0	2.0	2.0
Fz	4,33155E-15	70,71067812	70,71067812	0	0	0	2.0	2.0
F4	57,46965744	66,81464076	47,25507649	0	0	0	2.0	2.0
F8	80,90169944	58,77852523	6,12574E-15	0	0	0	2.0	2.0
T3		-100	1,22515E-14	6,12574E-15	0	0	0	2.0	2.0
C3	-70,71067812	8,66311E-15	70,71067812	0	0	0	2.0	2.0
Cz		0	0		100		0	0	0	2.0	2.0
C4	70,71067812	0		70,71067812	0	0	0	2.0	2.0
T4		100	0		6,12574E-15	0	0	0	2.0	2.0
T5	-80,90169944	-58,77852523	6,12574E-15	0	0	0	2.0	2.0
P3	-57,46965744	-66,81464076	47,25507649	0	0	0	2.0	2.0
Pz	-1,29947E-14	-70,71067812	70,71067812	0	0	0	2.0	2.0
P4	57,46965744	-66,81464076	47,25507649	0	0	0	2.0	2.0
T6	80,90169944	-58,77852523	6,12574E-15	0	0	0	2.0	2.0
O1	-30,90169944	-95,10565163	6,12574E-15	0	0	0	2.0	2.0
Oz	-1,83772E-14	-100		6,12574E-15	0	0	0	2.0	2.0
O2	30,90169944	-95,10565163	6,12574E-15	0	0	0	2.0	2.0